<svg width="30" height="30" viewBox="0 0 30 30" fill="none" xmlns="http://www.w3.org/2000/svg">
<path d="M24.4018 6.58312V14.9938L15.3214 24.0742C15.194 24.2014 15.0383 24.2967 14.8671 24.3525C14.6959 24.4083 14.514 24.423 14.3361 24.3953C14.1581 24.3677 13.9892 24.2985 13.843 24.1934C13.6968 24.0882 13.5775 23.9501 13.4946 23.7903C13.4697 23.7538 13.4499 23.7142 13.4357 23.6724L11.2018 17.8599L23.4321 6.16527C23.5297 6.06878 23.6594 6.01157 23.7964 6.00455C23.8746 6.00085 23.9528 6.01308 24.0262 6.0405C24.0995 6.06792 24.1665 6.10996 24.2231 6.16407C24.2797 6.21817 24.3248 6.28322 24.3555 6.35526C24.3862 6.42729 24.4019 6.50482 24.4018 6.58312Z" fill="#6B39B6"/>
<path d="M23.5714 5.65327L6.22179 14.327C6.01882 14.4286 5.85052 14.588 5.73814 14.7852C5.62576 14.9824 5.57435 15.2085 5.5904 15.4349C5.60645 15.6613 5.68925 15.8778 5.82833 16.0572C5.9674 16.2365 6.15652 16.3706 6.37179 16.4426L22.8895 21.9481C23.0619 22.0055 23.2456 22.0212 23.4253 21.9938C23.605 21.9663 23.7757 21.8966 23.9231 21.7903C24.0706 21.684 24.1907 21.5442 24.2736 21.3823C24.3564 21.2205 24.3996 21.0413 24.3996 20.8595V6.16648C24.3995 6.06897 24.3745 5.97311 24.3269 5.88795C24.2794 5.8028 24.211 5.73116 24.1281 5.67979C24.0452 5.62843 23.9506 5.59904 23.8532 5.5944C23.7558 5.58976 23.6588 5.61002 23.5714 5.65327Z" fill="white"/>
<path d="M22.3071 8.02985L14.1268 18.9316C14.093 18.9825 14.0744 19.042 14.0732 19.1031V23.7745C14.0742 23.8424 14.0511 23.9085 14.008 23.9609C13.9648 24.0134 13.9045 24.0489 13.8377 24.0611C13.7709 24.0733 13.7019 24.0614 13.643 24.0276C13.5842 23.9938 13.5392 23.9401 13.5161 23.8763L11.2714 18.0424C11.2501 17.9896 11.2454 17.9316 11.2578 17.8761C11.2703 17.8206 11.2993 17.7702 11.3411 17.7316L21.8786 7.6495C21.909 7.61933 21.9459 7.59655 21.9865 7.58292C22.0271 7.56928 22.0703 7.56515 22.1127 7.57084C22.1552 7.57654 22.1957 7.5919 22.2313 7.61576C22.2669 7.63961 22.2965 7.67132 22.3179 7.70843C22.3511 7.75594 22.368 7.81296 22.3661 7.87093C22.3642 7.92889 22.3435 7.98466 22.3071 8.02985Z" fill="#E94367"/>
<path d="M22.3072 8.02944L14.1268 18.9312C14.093 18.9821 14.0744 19.0416 14.0732 19.1027V23.7741C14.0744 23.8401 14.0526 23.9045 14.0115 23.9563C13.9705 24.0081 13.9128 24.044 13.8482 24.058L12.6804 18.9955C12.6402 18.8277 12.6417 18.6526 12.6846 18.4855C12.7276 18.3183 12.8107 18.1642 12.9268 18.0366L22.3179 7.70801C22.3511 7.75552 22.3681 7.81255 22.3661 7.87051C22.3642 7.92847 22.3435 7.98424 22.3072 8.02944Z" fill="#CE305D"/>
</svg>
