<svg width="21" height="20" viewBox="0 0 21 20" fill="none" xmlns="http://www.w3.org/2000/svg">
<g clip-path="url(#clip0_189_427)">
<path fill-rule="evenodd" clip-rule="evenodd" d="M20.2955 9.33146C19.9744 10.4873 19.3185 11.5351 18.3977 12.3639L11.1532 18.8545C11.0617 18.9391 10.9485 18.9857 10.829 18.9884C10.7148 18.9911 10.5997 18.9498 10.4992 18.8697L2.96659 12.7218C2.00857 11.9365 1.29948 10.9204 0.930205 9.78061C0.131117 7.34383 0.73229 4.60521 2.46152 2.80729C4.06402 1.14411 6.31672 0.652361 8.49665 1.49718C9.34042 1.82367 10.0334 2.59872 10.4624 3.18203C10.8692 2.57934 11.5255 1.77299 12.3532 1.40774C14.4864 0.462879 16.7649 0.849531 18.4426 2.43664C20.2533 4.15245 20.9808 6.86025 20.2955 9.33146Z" fill="#FF0000"/>
</g>
<defs>
<clipPath id="clip0_189_427">
<rect width="19.9726" height="18" fill="white" transform="translate(0.426331 1.22559) rotate(-1.32865)"/>
</clipPath>
</defs>
</svg>
