<svg width="22" height="19" viewBox="0 0 22 19" fill="none" xmlns="http://www.w3.org/2000/svg">
<g clip-path="url(#clip0_189_423)">
<path fill-rule="evenodd" clip-rule="evenodd" d="M21.3861 0.987232C21.3062 0.807981 21.1369 0.691462 20.9477 0.686163L1.98146 0.155087C1.7724 0.149233 1.58192 0.280311 1.50395 0.48351C1.42565 0.68653 1.47633 0.918813 1.63108 1.06567L8.12528 7.22399L7.84224 17.8022C7.83626 18.0271 7.96816 18.2304 8.16988 18.3071C8.221 18.3263 8.27383 18.3365 8.32658 18.3379C8.48046 18.3423 8.63221 18.2714 8.7319 18.14L21.3239 1.53335C21.4415 1.37797 21.4654 1.1668 21.3861 0.987232ZM3.3025 1.23802L18.7353 1.67015L8.72444 6.38017L3.3025 1.23802ZM9.12059 7.33918L19.2684 2.56471L8.8821 16.2625L9.12059 7.33918Z" fill="#373736"/>
</g>
<defs>
<clipPath id="clip0_189_423">
<rect width="19.9726" height="18" fill="white" transform="translate(1.4812 0.139648) rotate(1.60393)"/>
</clipPath>
</defs>
</svg>
