<svg width="19" height="19" viewBox="0 0 19 19" fill="none" xmlns="http://www.w3.org/2000/svg">
<g clip-path="url(#clip0_189_425)">
<path fill-rule="evenodd" clip-rule="evenodd" d="M18.1837 7.15789C17.4383 3.78578 14.653 1.06662 11.2536 0.391051C8.26892 -0.203273 5.32022 0.650049 3.16508 2.72872C1.00977 4.80756 0.0595716 7.71316 0.559069 10.7006C1.14877 14.2309 3.91608 17.1221 7.44609 17.8944C9.2273 18.2832 11.0517 18.1389 12.7243 17.4754C12.9137 17.4007 13.2031 17.3312 13.5086 17.4284L16.0131 18.2267C16.1433 18.2681 16.2757 18.2893 16.4074 18.2909C16.7297 18.2948 17.0449 18.1813 17.2972 17.9622C17.6521 17.6536 17.8155 17.1936 17.7336 16.7317L17.2546 14.0098C17.2027 13.7162 17.2972 13.4534 17.3858 13.2845C18.3768 11.3968 18.6529 9.27829 18.1837 7.15789ZM16.4559 12.8C16.2208 13.2484 16.1395 13.7296 16.2209 14.1909L16.7001 16.9122C16.725 17.0542 16.643 17.1429 16.6066 17.1745C16.5715 17.2062 16.4741 17.2767 16.3328 17.231L13.8283 16.4328C13.6317 16.37 13.4277 16.3373 13.2206 16.3348C12.9279 16.3312 12.629 16.3879 12.3354 16.5043C10.8595 17.0904 9.24787 17.218 7.67086 16.873C4.55651 16.1918 2.11452 13.6421 1.59457 10.529C1.15282 7.8853 1.9912 5.31603 3.89501 3.47972C5.79969 1.64324 8.40786 0.891322 11.0484 1.41617C14.0458 2.01186 16.5015 4.40935 17.1589 7.38262C17.5736 9.26002 17.3307 11.1333 16.4559 12.8Z" fill="#373736"/>
</g>
<defs>
<clipPath id="clip0_189_425">
<rect width="17.9753" height="18" fill="white" transform="translate(0.538635 0.0942383) rotate(0.7031)"/>
</clipPath>
</defs>
</svg>
