<svg width="17" height="19" viewBox="0 0 17 19" fill="none" xmlns="http://www.w3.org/2000/svg">
<g clip-path="url(#clip0_189_429)">
<path fill-rule="evenodd" clip-rule="evenodd" d="M14.3719 0.402802L1.61782 0.484326C0.729294 0.490006 0.0105856 1.21493 0.0162454 2.10039L0.113548 17.323C0.116497 17.7844 0.380492 18.1893 0.802258 18.3792C0.962022 18.4511 1.13034 18.4861 1.29603 18.485C1.56845 18.4833 1.83626 18.3851 2.05332 18.1971L8.07472 12.9884L14.1624 18.1197L14.1624 18.1198C14.5163 18.4179 14.9972 18.4813 15.4162 18.2858C15.8356 18.0902 16.0944 17.6823 16.0915 17.2209L15.9942 1.99826C15.9885 1.1128 15.2604 0.397123 14.3719 0.402802ZM15.1406 17.227C15.1414 17.3541 15.0515 17.4098 15.0131 17.4278C14.9743 17.4456 14.8741 17.4789 14.7763 17.3962L14.7763 17.3965L8.37777 12.0032C8.19944 11.8521 7.93581 11.8538 7.75927 12.0071L1.43038 17.4818C1.33377 17.5652 1.2337 17.5338 1.19412 17.5162C1.1555 17.4986 1.0652 17.4444 1.06438 17.3169L0.967082 2.09431C0.964761 1.73132 1.25942 1.43385 1.62387 1.43152L14.378 1.34999C14.7424 1.34766 15.041 1.64134 15.0433 2.00433L15.1406 17.227Z" fill="#373736"/>
</g>
<defs>
<clipPath id="clip0_189_429">
<rect width="15.9781" height="18" fill="white" transform="translate(0.00598145 0.494141) rotate(-0.366228)"/>
</clipPath>
</defs>
</svg>
