<svg width="50" height="50" viewBox="0 0 50 50" fill="none" xmlns="http://www.w3.org/2000/svg">
<g clip-path="url(#clip0_142_683)">
<path d="M30.4368 25.0291C30.1668 25.0291 29.8963 24.9589 29.6554 24.8199C29.1717 24.5409 28.8744 24.0251 28.8744 23.4667V10.9667C28.8744 10.4079 29.1717 9.89251 29.6554 9.61311C30.1377 9.33551 30.7359 9.33551 31.2178 9.61311L42.0427 15.8631C42.5264 16.1425 42.8237 16.6579 42.8237 17.2167C42.8237 17.7751 42.5264 18.291 42.0427 18.5699L31.2178 24.8199C30.9768 24.9589 30.7068 25.0291 30.4368 25.0291ZM31.9992 13.6735V20.7595L38.1365 17.2167L31.9992 13.6735Z" fill="url(#paint0_linear_142_683)"/>
<path d="M50 17.2166C50 8.60138 42.99 1.59143 34.3752 1.59143C25.7599 1.59143 18.75 8.60138 18.75 17.2166H1.56239C0.698716 17.2166 0 17.9154 0 18.779V46.9038C0 47.7674 0.698716 48.4666 1.56239 48.4666H37.5C38.3636 48.4666 39.0624 47.7674 39.0624 46.9038V32.1208C45.3942 30.1248 50 24.1989 50 17.2166ZM19.0651 20.3414C19.5368 22.6557 20.535 24.7756 21.9092 26.5968C21.9025 26.6549 21.8752 26.7054 21.8752 26.7653V35.9666H17.1876V20.3414H19.0651ZM17.1876 40.6538V39.0914H21.8752V40.6538H17.1876ZM21.8752 43.779V45.3414H17.1876V43.779H21.8752ZM7.59065 20.3414H14.0624V35.9666H7.59065C7.02247 33.7806 5.31077 32.0689 3.12522 31.5007V24.8073C5.31077 24.2391 7.02247 22.5274 7.59065 20.3414ZM3.12522 39.0914H14.0624V40.6538H3.12522V39.0914ZM25 39.0914H35.9376V40.6538H25V39.0914ZM31.4717 35.9666H25V29.6862C27.3867 31.4855 30.2982 32.6116 33.465 32.7954C32.5048 33.6152 31.7989 34.7087 31.4717 35.9666ZM3.12522 43.779H14.0624V45.3414H3.12522V43.779ZM35.9376 45.3414H25V43.779H35.9376V45.3414ZM34.3752 29.7166C27.4828 29.7166 21.8752 24.109 21.8752 17.2166C21.8752 10.3243 27.4828 4.71665 34.3752 4.71665C41.2676 4.71665 46.8752 10.3243 46.8752 17.2166C46.8752 24.109 41.2676 29.7166 34.3752 29.7166Z" fill="#160F0A"/>
</g>
<defs>
<linearGradient id="paint0_linear_142_683" x1="28.8744" y1="9.40491" x2="44.3987" y2="23.265" gradientUnits="userSpaceOnUse">
<stop stop-color="#5E5CFA"/>
<stop offset="1" stop-color="#414DD4"/>
</linearGradient>
<clipPath id="clip0_142_683">
<rect width="50" height="50" fill="white"/>
</clipPath>
</defs>
</svg>
