<svg width="50" height="50" viewBox="0 0 50 50" fill="none" xmlns="http://www.w3.org/2000/svg">
<g clip-path="url(#clip0_142_695)">
<path d="M20.1282 33.8708C19.8495 33.8708 19.5708 33.7983 19.3216 33.6553C18.8223 33.3669 18.5154 32.8348 18.5154 32.258V19.3548C18.5154 18.7784 18.8223 18.2459 19.3216 17.9575C19.8195 17.6709 20.4369 17.6709 20.9349 17.9575L32.1085 24.4091C32.6078 24.6975 32.9152 25.23 32.9152 25.8064C32.9152 26.3832 32.6078 26.9152 32.1085 27.2037L20.9349 33.6553C20.6857 33.7983 20.4069 33.8708 20.1282 33.8708ZM21.741 22.1489V29.4639L28.0763 25.8064L21.741 22.1489Z" fill="url(#paint0_linear_142_695)"/>
<path d="M48.3873 24.1936H40.2407C39.4286 16.055 32.5423 9.67764 24.1936 9.67764C23.0889 9.67764 22.0105 9.79024 20.9676 10.0025V1.61279C20.9676 0.721255 20.2464 0 19.3548 0H1.61279C0.721255 0 0 0.721255 0 1.61279V24.1936C0 25.0852 0.721255 25.8064 1.61279 25.8064H8.06439C8.06439 34.6996 15.3005 41.9357 24.1936 41.9357C25.8789 41.9357 27.5037 41.6731 29.0325 41.1913V48.3873C29.0325 49.2788 29.7537 50.0001 30.6452 50.0001H48.3873C49.2788 50.0001 50.0001 49.2788 50.0001 48.3873V25.8064C50.0001 24.9149 49.2788 24.1936 48.3873 24.1936ZM38.9662 32.258H41.9357V35.4841H37.0969C37.0969 35.4721 37.0904 35.4628 37.0899 35.4513C37.8296 34.4652 38.4655 33.3997 38.9662 32.258ZM3.22603 22.5809V3.22603H17.742V11.0339C17.186 11.2775 16.6502 11.5576 16.1292 11.8603V6.45161C16.1292 5.56008 15.4075 4.83882 14.516 4.83882H6.45161C5.56008 4.83882 4.83882 5.56008 4.83882 6.45161V12.9032C4.83882 13.7947 5.56008 14.516 6.45161 14.516H12.6951C12.1981 15.0218 11.7445 15.5672 11.3172 16.1343C11.3075 16.1339 11.2997 16.1292 11.2904 16.1292H6.45161C5.56008 16.1292 4.83882 16.8505 4.83882 17.742C4.83882 18.6336 5.56008 19.3548 6.45161 19.3548H9.42107C8.97115 20.3802 8.6186 21.4577 8.38972 22.5809H3.22603ZM12.9032 11.2904H8.06439V8.06439H12.9032V11.2904ZM11.2904 25.8064C11.2904 18.6917 17.0789 12.9032 24.1936 12.9032C31.3084 12.9032 37.0969 18.6917 37.0969 25.8064C37.0969 32.9211 31.3084 38.7096 24.1936 38.7096C17.0789 38.7096 11.2904 32.9211 11.2904 25.8064ZM46.774 46.774H32.258V39.753C33.0121 39.3155 33.7347 38.8292 34.4047 38.2791C34.6917 38.5403 35.0651 38.7096 35.4841 38.7096H43.5485C44.44 38.7096 45.1612 37.9884 45.1612 37.0969V30.6452C45.1612 29.7537 44.44 29.0325 43.5485 29.0325H39.9976C40.1051 28.5036 40.1863 27.9651 40.2407 27.4192H46.774V46.774Z" fill="#160F0A"/>
<path d="M43.5485 40.3224H35.4841C34.5925 40.3224 33.8708 41.0441 33.8708 41.9356C33.8708 42.8272 34.5925 43.5484 35.4841 43.5484H43.5485C44.44 43.5484 45.1612 42.8272 45.1612 41.9356C45.1612 41.0441 44.44 40.3224 43.5485 40.3224Z" fill="#160F0A"/>
</g>
<defs>
<linearGradient id="paint0_linear_142_695" x1="18.5154" y1="17.7426" x2="34.5406" y2="32.0502" gradientUnits="userSpaceOnUse">
<stop stop-color="#5E5CFA"/>
<stop offset="1" stop-color="#414DD4"/>
</linearGradient>
<clipPath id="clip0_142_695">
<rect width="50" height="50" fill="white"/>
</clipPath>
</defs>
</svg>
