<svg width="40" height="40" viewBox="0 0 40 40" fill="none" xmlns="http://www.w3.org/2000/svg">
<g clip-path="url(#clip0_58_1265)">
<path d="M36.875 12.5306C36.5306 12.5306 36.2499 12.2499 36.2499 11.9055V10.0304C36.2499 9.33949 35.6909 8.78052 35 8.78052C34.309 8.78052 33.7501 9.33949 33.7501 10.0304V11.9055C33.7501 13.6292 35.1512 15.0304 36.875 15.0304C37.219 15.0304 37.5001 15.3112 37.5001 15.6556V18.1554C37.5001 18.4998 37.219 18.7805 36.875 18.7805H34.2675L24.6338 9.14673C24.3995 8.91248 24.0819 8.78052 23.7501 8.78052H1.24991C0.558972 8.78052 0 9.33949 0 10.0304V30.0304C0 30.7213 0.558972 31.2807 1.24991 31.2807H23.7501C24.0819 31.2807 24.3995 31.1487 24.6338 30.9145L34.2675 21.2807H36.875C38.5984 21.2807 40 19.8791 40 18.1554V15.6556C40 13.9318 38.5984 12.5306 36.875 12.5306ZM23.2326 28.7805H2.50018V11.2807H23.2326L31.9827 20.0304L23.2326 28.7805Z" fill="#160F0A"/>
<path d="M8.75008 16.2807C9.44102 16.2807 9.99999 15.7214 9.99999 15.0304C9.99999 14.3395 9.44102 13.7805 8.75008 13.7805H4.99999C4.30906 13.7805 3.75008 14.3395 3.75008 15.0304V20.0304C3.75008 20.7214 4.30906 21.2807 4.99999 21.2807H7.50017V23.7805H4.99999C4.30906 23.7805 3.75008 24.3395 3.75008 25.0304C3.75008 25.7214 4.30906 26.2807 4.99999 26.2807H8.75008C9.44102 26.2807 9.99999 25.7214 9.99999 25.0304V20.0304C9.99999 19.3395 9.44102 18.7805 8.75008 18.7805H6.2499V16.2807H8.75008Z" fill="#796EFF"/>
<path d="M16.2499 16.2807C16.9408 16.2807 17.5002 15.7214 17.5002 15.0304C17.5002 14.3395 16.9408 13.7805 16.2499 13.7805H12.5002C11.8092 13.7805 11.2499 14.3395 11.2499 15.0304V25.0304C11.2499 25.7214 11.8092 26.2807 12.5002 26.2807H16.2499C16.9408 26.2807 17.5002 25.7214 17.5002 25.0304C17.5002 24.3395 16.9408 23.7805 16.2499 23.7805H13.7501V21.2807H16.2499C16.9408 21.2807 17.5002 20.7214 17.5002 20.0304C17.5002 19.3395 16.9408 18.7805 16.2499 18.7805H13.7501V16.2807H16.2499Z" fill="#796EFF"/>
<path d="M23.7501 13.7805H20C19.309 13.7805 18.7501 14.3395 18.7501 15.0304V25.0304C18.7501 25.7214 19.309 26.2807 20 26.2807H23.7501C24.441 26.2807 25 25.7214 25 25.0304V15.0304C25 14.3395 24.441 13.7805 23.7501 13.7805ZM22.5002 23.7805H21.2499V16.2807H22.5002V23.7805Z" fill="#796EFF"/>
</g>
<defs>
<clipPath id="clip0_58_1265">
<rect width="40" height="40" fill="white"/>
</clipPath>
</defs>
</svg>
