<svg width="50" height="50" viewBox="0 0 50 50" fill="none" xmlns="http://www.w3.org/2000/svg">
<path d="M25.3906 31.7383C25.3906 30.1202 19.5312 22.9492 19.5312 22.9492C19.5312 22.9492 12.3603 17.0898 10.7422 17.0898C9.12412 17.0898 2.44141 22.9492 2.44141 22.9492C2.44141 27.8315 4.54131 32.4906 8.20273 35.7317C10.127 37.4351 11.2305 39.8949 11.2305 42.4805C11.2305 43.2895 11.8863 43.9453 12.6953 43.9453H19.5312C19.5312 43.9453 25.3906 33.3563 25.3906 31.7383Z" fill="#B2FA09"/>
<path d="M30.8598 35.7317C34.1166 32.8487 36.138 28.8437 36.5449 24.5577C36.6268 23.6958 35.9523 22.9492 35.0865 22.9492H32.4637C31.84 22.9492 31.29 23.346 31.0806 23.9334C30.6763 25.0673 29.5931 25.8789 28.3203 25.8789C27.0476 25.8789 25.9644 25.0673 25.5601 23.9334C25.3506 23.346 24.8006 22.9492 24.177 22.9492H19.5312V28.8086C21.1493 28.8086 22.4609 30.1202 22.4609 31.7383C22.4609 33.3563 21.1493 34.668 19.5312 34.668V43.9453H26.3672C27.1775 43.9453 27.8312 43.2822 27.832 42.4719C27.8345 39.8895 28.9377 37.4332 30.8598 35.7317Z" fill="#E50058"/>
<path d="M2.44141 22.9491H7.8125C7.8125 21.3311 9.12412 20.0195 10.7422 20.0195C12.3603 20.0195 13.6719 21.3311 13.6719 22.9491H19.5312V17.0898C21.1493 17.0898 22.4609 15.7781 22.4609 14.1601C22.4609 12.542 21.1493 11.2304 19.5312 11.2304V7.39299C19.5312 6.53117 18.7905 5.85344 17.9325 5.93342C9.25586 6.74211 2.44141 14.0649 2.44141 22.9491Z" fill="#8CBCFF"/>
<path d="M36.3959 17.022C36.3959 18.6401 37.7075 19.9517 39.3256 19.9517C40.9437 19.9517 42.2553 18.6401 42.2553 17.022H46.0927C46.9545 17.022 47.6322 16.2813 47.5522 15.4233C46.7926 7.27322 40.2854 0.765989 32.1353 0.00641871C31.2771 -0.0735618 30.5365 0.604173 30.5365 1.46599V4.08972C30.5365 4.71335 30.9333 5.26335 31.5207 5.47283C32.6546 5.87712 33.4662 6.96032 33.4662 8.23308C33.4662 9.50583 32.6546 10.589 31.5207 10.9933C30.9333 11.2028 30.5365 11.7528 30.5365 12.3764V15.5573C30.5365 16.3663 31.1924 17.0221 32.0014 17.0221H36.3959V17.022Z" fill="#FFDA44"/>
<path d="M11.2305 42.4805V46.582C11.2305 48.4667 12.7638 50 14.6484 50H24.4141C26.2987 50 27.832 48.4667 27.832 46.582V42.4805H11.2305Z" fill="#FFF5F5"/>
<path d="M19.5312 42.4805V50H24.4141C26.2987 50 27.832 48.4667 27.832 46.582V42.4805H19.5312Z" fill="#DFDEF5"/>
</svg>
