<svg width="40" height="40" viewBox="0 0 40 40" fill="none" xmlns="http://www.w3.org/2000/svg">
<g clip-path="url(#clip0_58_1290)">
<path d="M38.6665 0H1.33324C0.596237 0 0 0.596237 0 1.33324V9.33342C0 10.0704 0.596237 10.6667 1.33324 10.6667H37.3333V33.9504C37.3333 35.8162 35.8162 37.3333 33.9504 37.3333H6.04935C4.18358 37.3333 2.66685 35.8162 2.66685 33.9504V13.905C2.66685 13.168 2.07024 12.5717 1.33324 12.5717C0.596237 12.5717 0 13.168 0 13.905V33.9504C0 37.2864 2.71339 40.0002 6.04935 40.0002H33.9504C37.2864 40.0002 40.0002 37.2864 40.0002 33.9504V1.33324C40.0002 0.596237 39.4035 0 38.6665 0ZM2.66685 8.00018V2.66685H37.3333V8.00018H2.66685Z" fill="#160F0A"/>
<path d="M4.00009 4H6.66656V6.66647H4.00009V4Z" fill="#160F0A"/>
<path d="M8.00018 4H10.6667V6.66647H8.00018V4Z" fill="#160F0A"/>
<path d="M11.9999 4H14.6667V6.66647H11.9999V4Z" fill="#160F0A"/>
<path d="M18.6668 26.6667H9.33342C8.59642 26.6667 8.00018 27.263 8.00018 28C8.00018 28.737 8.59642 29.3336 9.33342 29.3336H18.6668C19.4038 29.3336 20.0001 28.737 20.0001 28C20.0001 27.263 19.4038 26.6667 18.6668 26.6667Z" fill="#160F0A"/>
<path d="M18.6668 30.6667H11.9999C11.2629 30.6667 10.6667 31.263 10.6667 32C10.6667 32.737 11.2629 33.3332 11.9999 33.3332H18.6668C19.4038 33.3332 20.0001 32.737 20.0001 32C20.0001 31.263 19.4038 30.6667 18.6668 30.6667Z" fill="#160F0A"/>
<path d="M20.6055 18.6669C20.6055 17.9299 20.0092 17.3333 19.2722 17.3333H5.33333C4.59633 17.3333 4.00009 17.9299 4.00009 18.6669V24.0002C4.00009 24.7372 4.59633 25.3334 5.33333 25.3334H16.6431C17.3801 25.3334 17.9764 24.7372 17.9764 24.0002C17.9764 23.2632 17.3801 22.6666 16.6431 22.6666H6.66656V20.0001H19.2722C20.0092 20.0001 20.6055 19.4039 20.6055 18.6669Z" fill="#160F0A"/>
<path d="M34.2758 32.3906L30.5134 28.6282C31.4457 27.3201 32 25.7252 32 24.0002C32 19.5885 28.4115 16 24.0002 16C19.5885 16 16 19.5885 16 24.0002C16 28.4115 19.5885 32 24.0002 32C25.7252 32 27.3201 31.4457 28.6282 30.5134L32.3906 34.2758C32.6511 34.5364 32.9922 34.6668 33.3332 34.6668C33.6746 34.6668 34.0157 34.5364 34.2758 34.2758C34.7969 33.7551 34.7969 32.9117 34.2758 32.3906ZM24.0002 29.3335C21.0587 29.3335 18.6668 26.9413 18.6668 24.0002C18.6668 21.0587 21.0587 18.6669 24.0002 18.6669C26.9413 18.6669 29.3335 21.0587 29.3335 24.0002C29.3335 26.9413 26.9413 29.3335 24.0002 29.3335Z" fill="#796EFF"/>
</g>
<defs>
<clipPath id="clip0_58_1290">
<rect width="40" height="40" fill="white"/>
</clipPath>
</defs>
</svg>
