<svg width="50" height="50" viewBox="0 0 50 50" fill="none" xmlns="http://www.w3.org/2000/svg">
<g clip-path="url(#clip0_214_733)">
<path d="M44.0436 30.4696L37.6413 34.9525L34.7169 37.4847C34.8257 37.151 34.8852 36.7951 34.8852 36.425C34.8852 34.5371 33.3547 33.0067 31.4669 33.0067H31.4H24.931H23.4342C22.1825 33.0067 20.9632 32.6473 19.8884 32.0058C17.0524 30.3132 13.5845 30.1552 10.6056 31.5843L8.16318 32.7559H7.03125L8.49609 50.0001H29.2074C32.6148 50.0001 35.8484 48.7041 38.3126 46.3508L48.829 36.3079C49.5769 35.5936 50 34.6045 50 33.5704C50 30.5077 46.5523 28.7129 44.0436 30.4696Z" fill="#FFDECF"/>
<path d="M44.0436 30.4696L37.6413 34.9525L34.7169 37.4847C34.8257 37.151 34.8852 36.7951 34.8852 36.425C34.8852 34.5371 33.3547 33.0067 31.4669 33.0067H31.4H26.9531V50.0001H29.2074C32.6148 50.0001 35.8484 48.7041 38.3126 46.3508L48.829 36.3079C49.5769 35.5936 50 34.6045 50 33.5704C50 30.5077 46.5523 28.7129 44.0436 30.4696Z" fill="#FFCDBE"/>
<path d="M34.8507 36.9064C34.6166 38.5663 33.191 39.8433 31.4666 39.8432L22.496 39.8426C21.687 39.8425 21.0312 40.4983 21.0311 41.3073C21.031 42.1163 21.6868 42.7721 22.4958 42.7722L31.4664 42.7729C34.9725 42.7731 37.8149 39.931 37.8149 36.425C37.8149 35.9178 37.7536 35.4253 37.6413 34.9525L34.8507 36.9064Z" fill="#FFCDBE"/>
<path d="M34.8507 36.9064C34.6166 38.5663 33.191 39.8433 31.4666 39.8432L26.9531 39.8428V42.7725L31.4664 42.7728C34.9725 42.773 37.8148 39.9309 37.8148 36.4249C37.8148 35.9177 37.7536 35.4251 37.6413 34.9524L34.8507 36.9064Z" fill="#FFBEAA"/>
<path d="M1.46484 29.4922C0.655859 29.4922 0 30.148 0 30.957V48.5352C0 49.3441 0.655859 50 1.46484 50H8.49609V30.957C8.49609 30.148 7.84023 29.4922 7.03125 29.4922H1.46484Z" fill="#FF5E93"/>
<path d="M45.5078 12.6953H42.5781C41.7691 12.6953 41.1133 12.0395 41.1133 11.2305C41.1133 10.4215 41.7691 9.76562 42.5781 9.76562H45.5078C46.3168 9.76562 46.9727 10.4215 46.9727 11.2305C46.9727 12.0395 46.3168 12.6953 45.5078 12.6953Z" fill="#FF9F22"/>
<path d="M40.333 5.61519C39.9285 4.91461 40.1685 4.01871 40.8691 3.61422L43.4062 2.14937C44.1068 1.74488 45.0027 1.98492 45.4072 2.68551C45.8117 3.38609 45.5717 4.28199 44.8711 4.68648L42.334 6.15133C41.6334 6.55582 40.7375 6.31578 40.333 5.61519Z" fill="#FF9F22"/>
<path d="M43.4062 20.3115L40.8691 18.8466C40.1685 18.4421 39.9285 17.5462 40.333 16.8457C40.7375 16.1451 41.6334 15.905 42.334 16.3095L44.8711 17.7744C45.5717 18.1789 45.8117 19.0748 45.4072 19.7753C45.0028 20.4759 44.1069 20.716 43.4062 20.3115Z" fill="#FF9F22"/>
<path d="M11.3281 12.6953H8.39844C7.58945 12.6953 6.93359 12.0395 6.93359 11.2305C6.93359 10.4215 7.58945 9.76562 8.39844 9.76562H11.3281C12.1371 9.76562 12.793 10.4215 12.793 11.2305C12.793 12.0395 12.1371 12.6953 11.3281 12.6953Z" fill="#FFDA44"/>
<path d="M11.5723 6.15133L9.03515 4.68648C8.33456 4.28199 8.09452 3.38609 8.49901 2.68551C8.9035 1.98492 9.7994 1.74488 10.5 2.14937L13.0371 3.61422C13.7377 4.01871 13.9777 4.91461 13.5732 5.61519C13.1687 6.31578 12.2728 6.55582 11.5723 6.15133Z" fill="#FFDA44"/>
<path d="M8.49892 19.7753C8.09443 19.0748 8.33447 18.1789 9.03505 17.7744L11.5722 16.3095C12.2727 15.905 13.1686 16.1451 13.5731 16.8457C13.9776 17.5462 13.7376 18.4421 13.037 18.8466L10.4999 20.3115C9.79931 20.716 8.90341 20.4759 8.49892 19.7753Z" fill="#FFDA44"/>
<path d="M31.2256 24.4141H22.6807C21.8717 24.4141 21.2158 23.7582 21.2158 22.9492V22.6692C21.2158 21.6385 20.7034 20.6249 19.8102 19.8884C17.2125 17.7467 15.7227 14.591 15.7227 11.2305C15.7227 5.03799 20.7606 0 26.9531 0C33.1456 0 38.1836 5.03799 38.1836 11.2305C38.1836 14.5909 36.6937 17.7466 34.0962 19.8884C33.2028 20.6249 32.6904 21.6385 32.6904 22.6693V22.9492C32.6904 23.7582 32.0346 24.4141 31.2256 24.4141Z" fill="#FFF79F"/>
<path d="M26.9531 0V24.4141H31.2256C32.0346 24.4141 32.6904 23.7582 32.6904 22.9492V22.6692C32.6904 21.6385 33.2027 20.6249 34.0962 19.8883C36.6937 17.7466 38.1836 14.5909 38.1836 11.2305C38.1836 5.03799 33.1456 0 26.9531 0Z" fill="#FFDA44"/>
<path d="M30.9187 9.21812C30.3466 8.64604 29.4192 8.64604 28.8471 9.21812L26.9531 11.1121L25.0593 9.21821C24.4872 8.64614 23.5598 8.64614 22.9877 9.21821C22.4156 9.79028 22.4156 10.7177 22.9877 11.2898L25.4883 13.7904V24.4141H28.418V13.7904L30.9187 11.2897C31.4906 10.7177 31.4906 9.79019 30.9187 9.21812Z" fill="#FFDA44"/>
<path d="M30.9187 9.21812C30.3466 8.64604 29.4191 8.64604 28.8471 9.21812L26.9531 11.1121V24.4141H28.418V13.7904L30.9186 11.2897C31.4906 10.7177 31.4906 9.79019 30.9187 9.21812Z" fill="#FF9F22"/>
<path d="M21.2158 22.9492V26.8555C21.2158 28.7401 22.7491 30.2734 24.6338 30.2734H29.2725C31.1571 30.2734 32.6904 28.7401 32.6904 26.8555V22.9492H21.2158Z" fill="#FFF5F5"/>
<path d="M26.9531 22.9492V30.2734H29.2725C31.1571 30.2734 32.6904 28.7401 32.6904 26.8555V22.9492H26.9531Z" fill="#DFDEF5"/>
</g>
<defs>
<clipPath id="clip0_214_733">
<rect width="50" height="50" fill="white"/>
</clipPath>
</defs>
</svg>
