<svg width="40" height="40" viewBox="0 0 40 40" fill="none" xmlns="http://www.w3.org/2000/svg">
<g clip-path="url(#clip0_58_1271)">
<path d="M22.5001 26.8982C22.5001 27.9336 21.6604 28.7733 20.6251 28.7733C19.5894 28.7733 18.7501 27.9336 18.7501 26.8982C18.7501 25.8625 19.5894 25.0232 20.6251 25.0232C21.6604 25.0232 22.5001 25.8625 22.5001 26.8982Z" fill="#796EFF"/>
<path d="M34.6788 1.27319H5.32115C2.38645 1.27319 0 3.65964 0 6.59434V27.2023C0 30.137 2.38645 32.5231 5.32115 32.5231H14.4035L12.5892 37.0592C12.4354 37.4437 12.483 37.8807 12.7151 38.2237C12.9479 38.567 13.3349 38.7733 13.7501 38.7733H27.5002C27.915 38.7733 28.302 38.567 28.5351 38.2237C28.7669 37.8807 28.8148 37.4437 28.661 37.0592L26.8464 32.5231H34.6788C37.6135 32.5231 40 30.137 40 27.2023V6.59434C40 3.65964 37.6135 1.27319 34.6788 1.27319ZM3.81339 21.2732C4.10485 17.4734 5.7056 14.0423 8.16858 11.4191C9.22501 12.2803 10.3598 13.0241 11.5621 13.6307C10.6995 16.0318 10.1874 18.6099 10.0633 21.2732H3.81339ZM20 6.27319C20.2521 6.27319 20.4978 6.29965 20.7471 6.3111C22.572 7.93151 24.0666 9.97249 25.1902 12.2835C23.5273 12.8442 21.7756 13.1468 20 13.1468C18.224 13.1468 16.4827 12.8421 14.8287 12.2867C15.9531 9.97357 17.4487 7.93151 19.2751 6.31002C19.5172 6.2993 19.7554 6.27319 20 6.27319ZM24.8033 6.99882C26.698 7.58676 28.4364 8.52338 29.966 9.71607C29.1867 10.3223 28.3567 10.8512 27.4866 11.3022C26.7413 9.74897 25.8433 8.30702 24.8033 6.99882ZM12.5284 11.3136C11.654 10.8601 10.8207 10.3258 10.0358 9.71464C11.5718 8.51695 13.3191 7.57925 15.2231 6.99238C14.1785 8.30523 13.2766 9.75291 12.5284 11.3136ZM13.8627 14.5988C15.8215 15.2775 17.8903 15.647 20 15.647C22.1082 15.647 24.1892 15.2826 26.158 14.5981C26.8965 16.6948 27.3392 18.9454 27.4583 21.2732H12.5624C12.6815 18.9457 13.1242 16.6955 13.8627 14.5988ZM29.9574 21.2732C29.833 18.6038 29.3187 16.0196 28.4522 13.6135C29.6506 13.0084 30.7921 12.2867 31.8414 11.4305C34.2987 14.052 35.8955 17.4787 36.1866 21.2732H29.9574ZM5.32115 3.77337H34.6788C36.2341 3.77337 37.5001 5.03902 37.5001 6.59434V15.8472C34.9563 9.20288 28.7493 4.37418 21.3543 3.84203C21.271 3.83488 21.1902 3.81986 21.1079 3.82952C20.7392 3.8077 20.3741 3.77337 20 3.77337C19.632 3.77337 19.2726 3.80734 18.9096 3.82844C18.8338 3.81986 18.7601 3.83452 18.6839 3.83989C11.2721 4.35845 5.04827 9.19143 2.50018 15.8472V6.59434C2.50018 5.03902 3.76582 3.77337 5.32115 3.77337ZM25.6544 36.2732H15.5958L17.096 32.5231H24.1542L25.6544 36.2732ZM37.5001 27.2023C37.5001 28.7573 36.2341 30.0233 34.6788 30.0233H5.32115C3.76582 30.0233 2.50018 28.7573 2.50018 27.2023V23.7734H37.5001V27.2023Z" fill="#160F0A"/>
</g>
<defs>
<clipPath id="clip0_58_1271">
<rect width="40" height="40" fill="white"/>
</clipPath>
</defs>
</svg>
