<svg width="40" height="40" viewBox="0 0 40 40" fill="none" xmlns="http://www.w3.org/2000/svg">
<g clip-path="url(#clip0_58_1279)">
<path d="M16.1026 27.0967C15.8796 27.0967 15.6566 27.0387 15.4573 26.9243C15.0578 26.6935 14.8123 26.2679 14.8123 25.8064V15.4839C14.8123 15.0228 15.0578 14.5968 15.4573 14.366C15.8556 14.1368 16.3495 14.1368 16.7479 14.366L25.6868 19.5273C26.0863 19.758 26.3321 20.1841 26.3321 20.6451C26.3321 21.1066 26.0863 21.5322 25.6868 21.763L16.7479 26.9243C16.5485 27.0387 16.3256 27.0967 16.1026 27.0967ZM17.3928 17.7191V23.5711L22.4611 20.6451L17.3928 17.7191Z" fill="#796EFF"/>
<path d="M38.7098 19.3549H32.1926C31.5429 12.844 26.0338 7.74211 19.3549 7.74211C18.4711 7.74211 17.6084 7.83219 16.7741 8.002V1.29023C16.7741 0.577004 16.1971 0 15.4839 0H1.29023C0.577004 0 0 0.577004 0 1.29023V19.3549C0 20.0681 0.577004 20.6451 1.29023 20.6451H6.45151C6.45151 27.7597 12.2404 33.5485 19.3549 33.5485C20.7031 33.5485 22.0029 33.3385 23.226 32.9531V38.7098C23.226 39.4231 23.803 40.0001 24.5162 40.0001H38.7098C39.4231 40.0001 40.0001 39.4231 40.0001 38.7098V20.6451C40.0001 19.9319 39.4231 19.3549 38.7098 19.3549ZM31.173 25.8064H33.5485V28.3873H29.6775C29.6775 28.3777 29.6723 28.3703 29.6719 28.361C30.2637 27.5721 30.7724 26.7197 31.173 25.8064ZM2.58083 18.0647V2.58083H14.1936V8.82709C13.7488 9.02201 13.3202 9.24609 12.9034 9.48826V5.16129C12.9034 4.44806 12.326 3.87106 11.6128 3.87106H5.16129C4.44806 3.87106 3.87106 4.44806 3.87106 5.16129V10.3226C3.87106 11.0358 4.44806 11.6128 5.16129 11.6128H10.1561C9.75849 12.0174 9.3956 12.4538 9.05375 12.9075C9.046 12.9071 9.03973 12.9034 9.03234 12.9034H5.16129C4.44806 12.9034 3.87106 13.4804 3.87106 14.1936C3.87106 14.9069 4.44806 15.4839 5.16129 15.4839H7.53686C7.17692 16.3041 6.89488 17.1661 6.71178 18.0647H2.58083ZM10.3226 9.03234H6.45151V6.45151H10.3226V9.03234ZM9.03234 20.6451C9.03234 14.9534 13.6631 10.3226 19.3549 10.3226C25.0467 10.3226 29.6775 14.9534 29.6775 20.6451C29.6775 26.3369 25.0467 30.9677 19.3549 30.9677C13.6631 30.9677 9.03234 26.3369 9.03234 20.6451ZM37.4192 37.4192H25.8064V31.8024C26.4096 31.4524 26.9878 31.0633 27.5238 30.6233C27.7534 30.8322 28.0521 30.9677 28.3873 30.9677H34.8388C35.552 30.9677 36.129 30.3907 36.129 29.6775V24.5162C36.129 23.803 35.552 23.226 34.8388 23.226H31.9981C32.0841 22.8029 32.149 22.3721 32.1926 21.9354H37.4192V37.4192Z" fill="#160F0A"/>
<path d="M34.8388 32.2581H28.3872C27.674 32.2581 27.0966 32.8354 27.0966 33.5487C27.0966 34.2619 27.674 34.8389 28.3872 34.8389H34.8388C35.552 34.8389 36.129 34.2619 36.129 33.5487C36.129 32.8354 35.552 32.2581 34.8388 32.2581Z" fill="#160F0A"/>
</g>
<defs>
<clipPath id="clip0_58_1279">
<rect width="40" height="40" fill="white"/>
</clipPath>
</defs>
</svg>
