<svg width="50" height="50" viewBox="0 0 50 50" fill="none" xmlns="http://www.w3.org/2000/svg">
<g clip-path="url(#clip0_214_643)">
<path d="M40.7227 8.78906H9.27734C8.46836 8.78906 7.8125 9.44492 7.8125 10.2539V39.7461C7.8125 40.5551 8.46836 41.2109 9.27734 41.2109H40.7227C41.5316 41.2109 42.1875 40.5551 42.1875 39.7461V10.2539C42.1875 9.44492 41.5316 8.78906 40.7227 8.78906ZM26.4648 38.2812V28.9062C26.4648 28.0973 25.809 27.4414 25 27.4414C24.191 27.4414 23.5352 28.0973 23.5352 28.9062V38.2812H10.7422V26.4648H21.0938C21.9027 26.4648 22.5586 25.809 22.5586 25C22.5586 24.191 21.9027 23.5352 21.0938 23.5352H10.7422V11.7188H23.5352V21.0938C23.5352 21.9027 24.191 22.5586 25 22.5586C25.809 22.5586 26.4648 21.9027 26.4648 21.0938V11.7188H39.2578V23.5352H28.9062C28.0973 23.5352 27.4414 24.191 27.4414 25C27.4414 25.809 28.0973 26.4648 28.9062 26.4648H39.2578V38.2812H26.4648Z" fill="#5F55AF"/>
<path d="M40.7227 8.78906H25V22.5586C25.809 22.5586 26.4648 21.9027 26.4648 21.0938V11.7188H39.2578V23.5352H28.9062C28.0973 23.5352 27.4414 24.191 27.4414 25C27.4414 25.809 28.0973 26.4648 28.9062 26.4648H39.2578V38.2812H26.4648V28.9062C26.4648 28.0973 25.809 27.4414 25 27.4414V41.2109H40.7227C41.5316 41.2109 42.1875 40.5551 42.1875 39.7461V10.2539C42.1875 9.44492 41.5316 8.78906 40.7227 8.78906Z" fill="#453D83"/>
<path d="M25 28.9062C27.1574 28.9062 28.9062 27.1574 28.9062 25C28.9062 22.8426 27.1574 21.0938 25 21.0938C22.8426 21.0938 21.0938 22.8426 21.0938 25C21.0938 27.1574 22.8426 28.9062 25 28.9062Z" fill="#8CBCFF"/>
<path d="M25 21.0938V28.9062C27.1573 28.9062 28.9062 27.1573 28.9062 25C28.9062 22.8427 27.1573 21.0938 25 21.0938Z" fill="#6E76E5"/>
<path d="M25 30.3711C22.0384 30.3711 19.6289 27.9616 19.6289 25C19.6289 22.0384 22.0384 19.6289 25 19.6289C27.9616 19.6289 30.3711 22.0384 30.3711 25C30.3711 27.9616 27.9616 30.3711 25 30.3711ZM25 22.5586C23.6538 22.5586 22.5586 23.6538 22.5586 25C22.5586 26.3462 23.6538 27.4414 25 27.4414C26.3462 27.4414 27.4414 26.3462 27.4414 25C27.4414 23.6538 26.3462 22.5586 25 22.5586Z" fill="#FFF5F5"/>
<path d="M25 19.6289V22.5586C26.3462 22.5586 27.4414 23.6538 27.4414 25C27.4414 26.3462 26.3462 27.4414 25 27.4414V30.3711C27.9616 30.3711 30.3711 27.9616 30.3711 25C30.3711 22.0384 27.9616 19.6289 25 19.6289Z" fill="#DFDEF5"/>
<path d="M48.5352 20.5078H32.9102C32.1012 20.5078 31.4453 19.852 31.4453 19.043V16.1133C31.4453 12.0747 34.731 8.78906 38.7695 8.78906H42.6758C46.7144 8.78906 50 12.0747 50 16.1133V19.043C50 19.852 49.3441 20.5078 48.5352 20.5078Z" fill="#B2FA09"/>
<path d="M42.6758 8.78906H40.7227V20.5078H48.5352C49.3441 20.5078 50 19.852 50 19.043V16.1133C50 12.0747 46.7144 8.78906 42.6758 8.78906Z" fill="#70DA40"/>
<path d="M40.7227 10.7422C37.761 10.7422 35.3516 8.33272 35.3516 5.37109C35.3516 2.40947 37.761 0 40.7227 0C43.6843 0 46.0938 2.40947 46.0938 5.37109C46.0938 8.33272 43.6843 10.7422 40.7227 10.7422Z" fill="#FFDECF"/>
<path d="M40.7227 0V10.7422C43.6843 10.7422 46.0938 8.33272 46.0938 5.37109C46.0938 2.40947 43.6843 0 40.7227 0Z" fill="#FFCDBE"/>
<path d="M48.5352 50H32.9102C32.1012 50 31.4453 49.3441 31.4453 48.5352V45.6055C31.4453 41.5669 34.731 38.2812 38.7695 38.2812H42.6758C46.7144 38.2812 50 41.5669 50 45.6055V48.5352C50 49.3441 49.3441 50 48.5352 50Z" fill="#FF5E93"/>
<path d="M42.6758 38.2812H40.7227V50H48.5352C49.3441 50 50 49.3441 50 48.5352V45.6055C50 41.5669 46.7144 38.2812 42.6758 38.2812Z" fill="#E50058"/>
<path d="M40.7227 40.2344C37.761 40.2344 35.3516 37.8249 35.3516 34.8633C35.3516 31.9017 37.761 29.4922 40.7227 29.4922C43.6843 29.4922 46.0938 31.9017 46.0938 34.8633C46.0938 37.8249 43.6843 40.2344 40.7227 40.2344Z" fill="#FFDECF"/>
<path d="M40.7227 29.4922V40.2344C43.6843 40.2344 46.0938 37.8249 46.0938 34.8633C46.0938 31.9017 43.6843 29.4922 40.7227 29.4922Z" fill="#FFCDBE"/>
<path d="M17.0898 20.5078H1.46484C0.655859 20.5078 0 19.852 0 19.043V16.1133C0 12.0747 3.28564 8.78906 7.32422 8.78906H11.2305C15.269 8.78906 18.5547 12.0747 18.5547 16.1133V19.043C18.5547 19.852 17.8988 20.5078 17.0898 20.5078Z" fill="#8CBCFF"/>
<path d="M11.2305 8.78906H9.27734V20.5078H17.0898C17.8988 20.5078 18.5547 19.852 18.5547 19.043V16.1133C18.5547 12.0747 15.269 8.78906 11.2305 8.78906Z" fill="#6E76E5"/>
<path d="M9.27734 10.7422C6.31572 10.7422 3.90625 8.33272 3.90625 5.37109C3.90625 2.40947 6.31572 0 9.27734 0C12.239 0 14.6484 2.40947 14.6484 5.37109C14.6484 8.33272 12.239 10.7422 9.27734 10.7422Z" fill="#FFDECF"/>
<path d="M9.27734 0V10.7422C12.239 10.7422 14.6484 8.33272 14.6484 5.37109C14.6484 2.40947 12.239 0 9.27734 0Z" fill="#FFCDBE"/>
<path d="M17.0898 50H1.46484C0.655859 50 0 49.3441 0 48.5352V45.6055C0 41.5669 3.28564 38.2812 7.32422 38.2812H11.2305C15.269 38.2812 18.5547 41.5669 18.5547 45.6055V48.5352C18.5547 49.3441 17.8988 50 17.0898 50Z" fill="#FFF79F"/>
<path d="M11.2305 38.2812H9.27734V50H17.0898C17.8988 50 18.5547 49.3441 18.5547 48.5352V45.6055C18.5547 41.5669 15.269 38.2812 11.2305 38.2812Z" fill="#FFDA44"/>
<path d="M9.27734 40.2344C6.31572 40.2344 3.90625 37.8249 3.90625 34.8633C3.90625 31.9017 6.31572 29.4922 9.27734 29.4922C12.239 29.4922 14.6484 31.9017 14.6484 34.8633C14.6484 37.8249 12.239 40.2344 9.27734 40.2344Z" fill="#FFDECF"/>
<path d="M9.27734 29.4922V40.2344C12.239 40.2344 14.6484 37.8249 14.6484 34.8633C14.6484 31.9017 12.239 29.4922 9.27734 29.4922Z" fill="#FFCDBE"/>
</g>
<defs>
<clipPath id="clip0_214_643">
<rect width="50" height="50" fill="white"/>
</clipPath>
</defs>
</svg>
