<svg width="50" height="50" viewBox="0 0 50 50" fill="none" xmlns="http://www.w3.org/2000/svg">
<g clip-path="url(#clip0_214_762)">
<path d="M32.0099 39.0625H17.9901L15.6797 48.5352H34.3203L32.0099 39.0625Z" fill="#DFDEF5"/>
<path d="M32.0099 39.0625H25V48.5352H34.3203L32.0099 39.0625Z" fill="#B6BAF2"/>
<path d="M46.582 1.46484H3.41797C2.33926 1.46484 1.46484 2.33926 1.46484 3.41797V38.5742C1.46484 39.6529 2.33926 40.5273 3.41797 40.5273H46.582C47.6607 40.5273 48.5352 39.6529 48.5352 38.5742V3.41797C48.5352 2.33926 47.6607 1.46484 46.582 1.46484Z" fill="#8CBCFF"/>
<path d="M46.582 1.46484H25V40.5273H46.582C47.6607 40.5273 48.5352 39.6529 48.5352 38.5742V3.41797C48.5352 2.33926 47.6607 1.46484 46.582 1.46484Z" fill="#6E76E5"/>
<path d="M33.3008 9.27734H31.8359C28.0605 9.27734 25 12.3379 25 16.1133C25 12.3379 21.9395 9.27734 18.1641 9.27734H16.6992C15.8902 9.27734 15.2344 9.9332 15.2344 10.7422V12.207C15.2344 15.9824 18.2949 19.043 22.0703 19.043H23.5352V24.9023C23.5352 25.7113 24.191 26.3672 25 26.3672C25.809 26.3672 26.4648 25.7113 26.4648 24.9023V19.043H27.9297C31.7051 19.043 34.7656 15.9824 34.7656 12.207V10.7422C34.7656 9.9332 34.1098 9.27734 33.3008 9.27734Z" fill="#B2FA09"/>
<path d="M26.4648 24.9023V19.043H27.9297C31.7051 19.043 34.7656 15.9824 34.7656 12.207V10.7422C34.7656 9.9332 34.1098 9.27734 33.3008 9.27734H31.8359C28.0605 9.27734 25 12.3379 25 16.1133V26.3672C25.809 26.3672 26.4648 25.7113 26.4648 24.9023Z" fill="#70DA40"/>
<path d="M16.6702 24.9023L18.9163 36.1328H31.0837L33.3298 24.9023H16.6702Z" fill="#E50058"/>
<path d="M25 36.1328H31.0837L33.3298 24.9023H25V36.1328Z" fill="#B40042"/>
<path d="M36.7188 50H13.2812C12.4723 50 11.8164 49.3441 11.8164 48.5352C11.8164 47.7262 12.4723 47.0703 13.2812 47.0703H36.7188C37.5277 47.0703 38.1836 47.7262 38.1836 48.5352C38.1836 49.3441 37.5277 50 36.7188 50Z" fill="#FFF5F5"/>
<path d="M36.7188 50C37.5277 50 38.1836 49.3441 38.1836 48.5352C38.1836 47.7262 37.5277 47.0703 36.7188 47.0703H25V50H36.7188Z" fill="#DFDEF5"/>
<path d="M33.7891 26.3672H16.2109C15.402 26.3672 14.7461 25.7113 14.7461 24.9023C14.7461 24.0934 15.402 23.4375 16.2109 23.4375H33.7891C34.598 23.4375 35.2539 24.0934 35.2539 24.9023C35.2539 25.7113 34.598 26.3672 33.7891 26.3672Z" fill="#FF5E93"/>
<path d="M33.7891 23.4375H25V26.3672H33.7891C34.598 26.3672 35.2539 25.7113 35.2539 24.9023C35.2539 24.0934 34.598 23.4375 33.7891 23.4375Z" fill="#E50058"/>
<path d="M42.5781 16.6016H39.6484C38.8395 16.6016 38.1836 15.9457 38.1836 15.1367C38.1836 14.3277 38.8395 13.6719 39.6484 13.6719H42.5781C43.3871 13.6719 44.043 14.3277 44.043 15.1367C44.043 15.9457 43.3871 16.6016 42.5781 16.6016Z" fill="#DFDEF5"/>
<path d="M37.4033 9.52144C36.9988 8.82086 37.2389 7.92496 37.9394 7.52047L40.4766 6.05562C41.1772 5.65113 42.0731 5.89117 42.4776 6.59176C42.8821 7.29234 42.6421 8.18824 41.9415 8.59273L39.4043 10.0576C38.7037 10.4621 37.8078 10.222 37.4033 9.52144Z" fill="#DFDEF5"/>
<path d="M40.4766 24.2177L37.9394 22.7529C37.2389 22.3484 36.9988 21.4525 37.4033 20.7519C37.8078 20.0513 38.7037 19.8113 39.4043 20.2158L41.9415 21.6806C42.6421 22.0851 42.8821 22.981 42.4776 23.6816C42.0731 24.3822 41.1772 24.6222 40.4766 24.2177Z" fill="#DFDEF5"/>
<path d="M10.3516 16.6016H7.42188C6.61289 16.6016 5.95703 15.9457 5.95703 15.1367C5.95703 14.3277 6.61289 13.6719 7.42188 13.6719H10.3516C11.1605 13.6719 11.8164 14.3277 11.8164 15.1367C11.8164 15.9457 11.1605 16.6016 10.3516 16.6016Z" fill="#FFF5F5"/>
<path d="M10.5957 10.0576L8.05849 8.59273C7.35791 8.18824 7.11787 7.29234 7.52236 6.59176C7.92685 5.89117 8.82275 5.65113 9.52333 6.05562L12.0605 7.52047C12.7611 7.92496 13.0012 8.82086 12.5967 9.52144C12.1922 10.222 11.2963 10.4621 10.5957 10.0576Z" fill="#FFF5F5"/>
<path d="M7.52236 23.6816C7.11787 22.981 7.35791 22.0851 8.05849 21.6806L10.5957 20.2158C11.2963 19.8113 12.1922 20.0513 12.5967 20.7519C13.0012 21.4525 12.7611 22.3484 12.0605 22.7529L9.52333 24.2177C8.82275 24.6222 7.92685 24.3822 7.52236 23.6816Z" fill="#FFF5F5"/>
<path d="M46.582 0H3.41797C1.5333 0 0 1.5333 0 3.41797V38.5742C0 40.4589 1.5333 41.9922 3.41797 41.9922H46.582C48.4667 41.9922 50 40.4589 50 38.5742V3.41797C50 1.5333 48.4667 0 46.582 0ZM2.92969 34.668V3.41797C2.92969 3.14873 3.14873 2.92969 3.41797 2.92969H46.582C46.8513 2.92969 47.0703 3.14873 47.0703 3.41797V34.668H2.92969Z" fill="#FFF5F5"/>
<path d="M46.582 0H25V2.92969H46.582C46.8513 2.92969 47.0703 3.14873 47.0703 3.41797V34.668H25V41.9922H46.582C48.4667 41.9922 50 40.4589 50 38.5742V3.41797C50 1.5333 48.4667 0 46.582 0Z" fill="#DFDEF5"/>
</g>
<defs>
<clipPath id="clip0_214_762">
<rect width="50" height="50" fill="white"/>
</clipPath>
</defs>
</svg>
