<svg width="40" height="40" viewBox="0 0 40 40" fill="none" xmlns="http://www.w3.org/2000/svg">
<g clip-path="url(#clip0_43_27)">
<path d="M36.3154 11.313C35.9714 10.688 35.1839 10.4625 34.5626 10.8054C33.9376 11.1495 33.711 11.9343 34.055 12.5582C35.4121 15.0202 36.129 17.8162 36.129 20.6451C36.129 29.8942 28.604 37.4192 19.3549 37.4192C10.1059 37.4192 2.58083 29.8942 2.58083 20.6451C2.58083 11.3961 10.1059 3.87105 19.3549 3.87105C23.7716 3.87105 27.9398 5.57327 31.0936 8.66317C31.6027 9.16191 32.4193 9.15305 32.9184 8.64545C33.4171 8.13637 33.4097 7.31868 32.9007 6.82104C29.2614 3.25491 24.4505 1.29022 19.3549 1.29022C8.68201 1.29022 0 9.97223 0 20.6451C0 31.318 8.68201 40 19.3549 40C30.0278 40 38.7098 31.318 38.7098 20.6451C38.7098 17.3817 37.8818 14.1545 36.3154 11.313Z" fill="#160F0A"/>
<path d="M19.3549 6.45151C11.5286 6.45151 5.16125 12.8189 5.16125 20.6451C5.16125 28.4714 11.5286 34.8388 19.3549 34.8388C27.1812 34.8388 33.5485 28.4714 33.5485 20.6451C33.5485 12.8189 27.1812 6.45151 19.3549 6.45151ZM19.3549 32.2579C12.951 32.2579 7.74208 27.049 7.74208 20.6451C7.74208 14.2416 12.951 9.03233 19.3549 9.03233C25.7584 9.03233 30.9677 14.2416 30.9677 20.6451C30.9677 27.049 25.7584 32.2579 19.3549 32.2579Z" fill="#160F0A"/>
<path d="M19.3549 12.9034C15.0855 12.9034 11.6128 16.3761 11.6128 20.6452C11.6128 24.9145 15.0855 28.3873 19.3549 28.3873C23.6239 28.3873 27.0966 24.9145 27.0966 20.6452C27.0966 16.3761 23.6239 12.9034 19.3549 12.9034ZM19.3549 25.8064C16.5083 25.8064 14.1936 23.4918 14.1936 20.6452C14.1936 17.7989 16.5083 15.4839 19.3549 15.4839C22.2012 15.4839 24.5162 17.7989 24.5162 20.6452C24.5162 23.4918 22.2012 25.8064 19.3549 25.8064Z" fill="#160F0A"/>
<path d="M38.7098 3.87106H37.4192C37.4192 3.54065 37.2934 3.21062 37.0412 2.95885C36.7891 2.70671 36.459 2.58083 36.129 2.58083V1.29023C36.129 0.577004 35.552 0 34.8388 0C34.1256 0 33.5486 0.577004 33.5486 1.29023V4.62711L19.0876 19.0876C18.5837 19.5919 18.5837 20.4085 19.0876 20.9124C19.3398 21.1642 19.6698 21.2904 19.9999 21.2904C20.3303 21.2904 20.6603 21.1642 20.9124 20.9124L35.373 6.45151H38.7098C39.4231 6.45151 40.0001 5.87451 40.0001 5.16129C40.0001 4.44806 39.4231 3.87106 38.7098 3.87106Z" fill="white"/>
</g>
<defs>
<clipPath id="clip0_43_27">
<rect width="40" height="40" fill="white"/>
</clipPath>
</defs>
</svg>
