<svg width="40" height="40" viewBox="0 0 40 40" fill="none" xmlns="http://www.w3.org/2000/svg">
<g clip-path="url(#clip0_43_20)">
<path d="M32.0264 18.4002C31.6984 18.4002 31.3707 18.2749 31.1208 18.0249C30.6201 17.5242 30.6201 16.7135 31.1208 16.2132L35.9506 11.383C37.9349 9.39797 37.9349 6.16645 35.9506 4.18107C35.3778 3.60784 34.6986 3.19002 33.933 2.94116C32.0964 2.33935 30.111 2.81728 28.7487 4.18107L28.4485 4.48124C27.9479 4.98152 27.1372 4.98152 26.6369 4.48124L26.3367 4.18107C24.3488 2.19678 21.1198 2.19678 19.1344 4.18107C17.1505 6.16609 17.1505 9.39761 19.1344 11.383L20.0767 12.3253C20.577 12.8256 20.577 13.6363 20.0767 14.1366C19.5761 14.6369 18.7653 14.6369 18.265 14.1366L17.3231 13.1947C14.3394 10.2094 14.3394 5.35427 17.3231 2.3694C20.1141 -0.417907 24.5379 -0.601895 27.5425 1.82404C29.547 0.201496 32.2302 -0.307587 34.7261 0.504234C35.8795 0.88064 36.9014 1.50884 37.7623 2.3694C40.7461 5.35427 40.7461 10.2094 37.7623 13.1947L32.9321 18.0249C32.6817 18.2749 32.3541 18.4002 32.0264 18.4002Z" fill="white"/>
<path d="M36.7438 16.7813H27.1833L28.1579 11.9082C28.1744 11.8257 28.1832 11.7407 28.1832 11.6571V7.81391C28.1832 7.10581 27.61 6.53296 26.9019 6.53296H21.7777C21.2437 6.53296 20.7657 6.86428 20.5781 7.36457L18.9841 11.6143C17.9755 14.3052 15.5723 16.2246 12.7894 16.6765C12.7333 16.0201 12.2004 15.5 11.5293 15.5H1.28095C0.572856 15.5 0 16.0729 0 16.781V37.2777C0 37.9858 0.572856 38.5586 1.28095 38.5586H11.5293C12.2374 38.5586 12.8106 37.9858 12.8106 37.2777H15.0698L19.9235 39.7047C20.1013 39.7934 20.2977 39.84 20.4967 39.84H35.2524C37.7117 39.84 39.7121 37.8395 39.7121 35.3799V19.7497C39.7125 18.1136 38.3802 16.7813 36.7438 16.7813ZM2.56227 35.9967V18.0623H10.2484V35.9967H2.56227ZM35.2528 37.278H20.7995L15.9458 34.851C15.768 34.762 15.5716 34.7158 15.3725 34.7158H12.8106V19.2644C16.6513 18.7865 20.0027 16.1945 21.384 12.514L22.6661 9.09487H25.6213V11.5307L24.3649 17.8109C24.2897 18.1873 24.3876 18.5776 24.6302 18.8741C24.874 19.1706 25.2368 19.3432 25.6213 19.3432H36.7438C36.9677 19.3432 37.1506 19.5261 37.1506 19.7501V21.9055H30.7455C30.0374 21.9055 29.4641 22.4784 29.4641 23.1865C29.4641 23.8946 30.0374 24.4674 30.7455 24.4674H37.1506V27.0297H30.7455C30.0374 27.0297 29.4641 27.6025 29.4641 28.3106C29.4641 29.0187 30.0374 29.592 30.7455 29.592H37.1506V32.1539H32.0264C31.3183 32.1539 30.7455 32.7267 30.7455 33.4348C30.7455 34.1429 31.3183 34.7161 32.0264 34.7161H37.1506V35.3803C37.1506 36.4259 36.2985 37.278 35.2528 37.278Z" fill="#160F0A"/>
<path d="M8.96741 32.1538C8.96741 33.5686 7.82024 34.7157 6.40551 34.7157C4.99041 34.7157 3.84323 33.5686 3.84323 32.1538C3.84323 30.7387 4.99041 29.5916 6.40551 29.5916C7.82024 29.5916 8.96741 30.7387 8.96741 32.1538Z" fill="white"/>
</g>
<defs>
<clipPath id="clip0_43_20">
<rect width="40" height="40" fill="white"/>
</clipPath>
</defs>
</svg>
