<svg width="40" height="40" viewBox="0 0 40 40" fill="none" xmlns="http://www.w3.org/2000/svg">
<g clip-path="url(#clip0_43_47)">
<path d="M38.75 15.0805H36.2498C35.5589 15.0805 34.9999 14.5215 34.9999 13.8306C34.9999 13.1397 35.5589 12.5803 36.2498 12.5803H38.75C39.441 12.5803 39.9999 13.1397 39.9999 13.8306C39.9999 14.5215 39.441 15.0805 38.75 15.0805Z" fill="white"/>
<path d="M36.2499 11.3304C35.9302 11.3304 35.6104 11.2085 35.3662 10.9642C34.878 10.476 34.878 9.68497 35.3662 9.1968L37.8664 6.69663C38.3545 6.20846 39.1456 6.20846 39.6338 6.69663C40.1219 7.18515 40.1219 7.97622 39.6338 8.46438L37.1336 10.9642C36.8897 11.2081 36.57 11.3304 36.2499 11.3304Z" fill="white"/>
<path d="M38.7501 21.3304C38.4303 21.3304 38.1103 21.2085 37.8664 20.9642L35.3662 18.4644C34.878 17.9759 34.878 17.1848 35.3662 16.6966C35.8547 16.2085 36.6458 16.2085 37.1336 16.6966L39.6338 19.1968C40.1219 19.685 40.1219 20.476 39.6338 20.9642C39.3899 21.2085 39.0698 21.3304 38.7501 21.3304Z" fill="white"/>
<path d="M3.75009 15.0805H1.24991C0.558972 15.0805 0 14.5215 0 13.8306C0 13.1397 0.558972 12.5803 1.24991 12.5803H3.75009C4.44102 12.5803 5 13.1397 5 13.8306C5 14.5215 4.44102 15.0805 3.75009 15.0805Z" fill="white"/>
<path d="M3.75006 11.3304C3.42998 11.3304 3.11026 11.2085 2.86636 10.9642L0.366183 8.46438C-0.121979 7.97586 -0.121979 7.18479 0.366183 6.69663C0.854345 6.20846 1.64578 6.20846 2.13358 6.69663L4.63376 9.1968C5.12192 9.68497 5.12192 10.476 4.63376 10.9642C4.3895 11.2081 4.06978 11.3304 3.75006 11.3304Z" fill="white"/>
<path d="M1.24988 21.3304C0.930162 21.3304 0.610442 21.2085 0.366183 20.9642C-0.121979 20.476 -0.121979 19.685 0.366183 19.1968L2.86636 16.6966C3.35452 16.2085 4.14559 16.2085 4.63376 16.6966C5.12192 17.1851 5.12192 17.9762 4.63376 18.4644L2.13358 20.9642C1.88968 21.2085 1.56996 21.3304 1.24988 21.3304Z" fill="white"/>
<path d="M29.3799 3.66429C26.4062 1.00211 22.4147 -0.271049 18.4032 0.168118C12.1032 0.865134 6.91547 5.92128 6.06933 12.1909C5.41844 17.0102 7.22768 21.7517 10.9105 24.8716C12.7148 26.4023 13.7497 28.5151 13.7497 30.6698V31.3304C13.7497 32.0213 14.3091 32.5803 15 32.5803H25C25.6909 32.5803 26.2499 32.0213 26.2499 31.3304V30.4284C26.2499 28.3896 27.2352 26.4062 28.9539 24.985C32.2008 22.3021 34.0626 18.3506 34.0626 14.1428C34.0626 10.1499 32.356 6.3304 29.3799 3.66429ZM27.3621 23.0588C25.1624 24.8766 23.861 27.4194 23.7572 30.0805H16.2317C16.0607 27.4011 14.7314 24.8351 12.527 22.9651C9.49826 20.3977 8.0116 16.4953 8.54733 12.5256C9.24184 7.3779 13.5033 3.22619 18.6779 2.65363C22.0278 2.28134 25.2296 3.30416 27.7112 5.52717C30.1588 7.71943 31.5625 10.859 31.5625 14.1428C31.5625 17.6025 30.0318 20.8519 27.3621 23.0588Z" fill="#160F0A"/>
<path d="M25 33.8306H15C14.309 33.8306 13.7501 34.3895 13.7501 35.0805C13.7501 35.7714 14.309 36.3304 15 36.3304H25C25.6909 36.3304 26.2499 35.7714 26.2499 35.0805C26.2499 34.3895 25.6909 33.8306 25 33.8306Z" fill="#160F0A"/>
<path d="M25 37.5803H15C14.309 37.5803 13.7501 38.1396 13.7501 38.8305C13.7501 39.5215 14.309 40.0804 15 40.0804H25C25.6909 40.0804 26.2499 39.5215 26.2499 38.8305C26.2499 38.1396 25.6909 37.5803 25 37.5803Z" fill="#160F0A"/>
<path d="M23.7501 12.5803C24.441 12.5803 25 12.0213 25 11.3304C25 10.6395 24.441 10.0805 23.7501 10.0805H21.2499V8.83059C21.2499 8.13965 20.6909 7.58032 20 7.58032C19.3091 7.58032 18.7501 8.13965 18.7501 8.83059V10.0805H16.2499C15.559 10.0805 15 10.6395 15 11.3304V15.0805C15 15.7714 15.559 16.3304 16.2499 16.3304H18.7501V17.5803H16.2499C15.559 17.5803 15 18.1396 15 18.8306C15 19.5215 15.559 20.0805 16.2499 20.0805H18.7501V21.3304C18.7501 22.0213 19.3091 22.5803 20 22.5803C20.6909 22.5803 21.2499 22.0213 21.2499 21.3304V20.0805H23.7501C24.441 20.0805 25 19.5215 25 18.8306V15.0805C25 14.3896 24.441 13.8306 23.7501 13.8306H21.2499V12.5803H23.7501ZM22.5002 16.3304V17.5803H21.2499V16.3304H22.5002ZM18.7501 13.8306H17.5002V12.5803H18.7501V13.8306Z" fill="#160F0A"/>
</g>
<defs>
<clipPath id="clip0_43_47">
<rect width="40" height="40" fill="white"/>
</clipPath>
</defs>
</svg>
