<svg width="40" height="40" viewBox="0 0 40 40" fill="none" xmlns="http://www.w3.org/2000/svg">
<path d="M25.6713 21.2593C25.6713 24.1948 23.2916 26.5744 20.3566 26.5744C17.4211 26.5744 15.0418 24.1948 15.0418 21.2593C15.0418 18.3243 17.4211 15.9446 20.3566 15.9446C23.2916 15.9446 25.6713 18.3243 25.6713 21.2593Z" fill="white"/>
<path d="M38.2794 31.8139L30.9861 3.04605V1.32934C30.9861 0.79866 30.6705 0.319683 30.184 0.109466C29.6974 -0.101892 29.1333 -0.000774814 28.7463 0.361119L25.3847 3.52731L21.6669 0.322344C21.1587 -0.112536 20.4056 -0.106074 19.9103 0.341732L16.3666 3.53111L12.7865 0.33755C12.2911 -0.106074 11.5423 -0.111396 11.0336 0.321964L7.32119 3.52351L3.99838 0.366441C3.61444 -0.000774814 3.04727 -0.101892 2.55955 0.108325C2.07145 0.318163 1.75479 0.79828 1.75479 1.32934V31.8892C1.75479 32.6236 2.34895 33.2178 3.08338 33.2178H8.47833L9.94339 38.9982C10.0304 39.3396 10.2498 39.6327 10.552 39.8132C10.7596 39.9364 10.9945 39.9999 11.2321 39.9999C11.3412 39.9999 11.4514 39.9869 11.559 39.96L37.3181 33.4291C37.6594 33.3425 37.9525 33.1231 38.1327 32.8209C38.3133 32.5183 38.365 32.1564 38.2794 31.8139ZM4.41235 4.4252L6.36361 6.278C6.85932 6.75166 7.63024 6.76686 8.14647 6.3221L11.8874 3.09623L15.4855 6.30651C15.9926 6.7566 16.7544 6.7566 17.2592 6.30271L20.8184 3.10041L24.5552 6.3221C25.0715 6.76724 25.8386 6.749 26.3343 6.28333L28.3285 4.40429V30.5602H4.41235V4.4252ZM11.221 33.2178H27.3367L12.1934 37.0572L11.221 33.2178ZM30.9002 32.3142C30.9465 32.1792 30.9861 32.0397 30.9861 31.8888V13.8626L35.3771 31.1791L30.9002 32.3142Z" fill="#160F0A"/>
<path d="M24.3423 9.30127H8.39811C7.66368 9.30127 7.06952 9.89543 7.06952 10.6299C7.06952 11.3643 7.66368 11.9588 8.39811 11.9588H24.3423C25.0768 11.9588 25.6713 11.3643 25.6713 10.6299C25.6713 9.89543 25.0768 9.30127 24.3423 9.30127Z" fill="#160F0A"/>
<path d="M13.7129 14.616H8.39811C7.66368 14.616 7.06952 15.2102 7.06952 15.9446C7.06952 16.679 7.66368 17.2736 8.39811 17.2736H13.7129C14.4473 17.2736 15.0418 16.679 15.0418 15.9446C15.0418 15.2102 14.4473 14.616 13.7129 14.616Z" fill="#160F0A"/>
<path d="M13.7129 25.2455H8.39811C7.66368 25.2455 7.06952 25.84 7.06952 26.5745C7.06952 27.3089 7.66368 27.903 8.39811 27.903H13.7129C14.4473 27.903 15.0418 27.3089 15.0418 26.5745C15.0418 25.84 14.4473 25.2455 13.7129 25.2455Z" fill="#160F0A"/>
<path d="M8.39811 22.5883H11.0557C11.7901 22.5883 12.3843 21.9938 12.3843 21.2594C12.3843 20.5249 11.7901 19.9308 11.0557 19.9308H8.39811C7.66368 19.9308 7.06952 20.5249 7.06952 21.2594C7.06952 21.9938 7.66368 22.5883 8.39811 22.5883Z" fill="#160F0A"/>
</svg>
