<svg width="33" height="33" viewBox="0 0 33 33" fill="none" xmlns="http://www.w3.org/2000/svg">
<g clip-path="url(#clip0_250_1215)">
<path d="M24.75 0H8.25C6.06397 0.00652875 3.96934 0.877819 2.42358 2.42358C0.877819 3.96934 0.00652875 6.06397 0 8.25L0 24.75C0.00652875 26.936 0.877819 29.0307 2.42358 30.5764C3.96934 32.1222 6.06397 32.9935 8.25 33H24.75C26.936 32.9935 29.0307 32.1222 30.5764 30.5764C32.1222 29.0307 32.9935 26.936 33 24.75V8.25C32.9935 6.06397 32.1222 3.96934 30.5764 2.42358C29.0307 0.877819 26.936 0.00652875 24.75 0V0ZM16.5 23.3743C15.1404 23.3743 13.8113 22.9711 12.6808 22.2158C11.5504 21.4604 10.6693 20.3868 10.149 19.1307C9.62866 17.8746 9.49253 16.4924 9.75778 15.1589C10.023 13.8254 10.6777 12.6005 11.6391 11.6391C12.6005 10.6777 13.8254 10.023 15.1589 9.75778C16.4924 9.49253 17.8746 9.62866 19.1307 10.149C20.3868 10.6693 21.4604 11.5504 22.2158 12.6808C22.9711 13.8113 23.3743 15.1404 23.3743 16.5C23.3743 18.3232 22.6501 20.0717 21.3609 21.3609C20.0717 22.6501 18.3232 23.3743 16.5 23.3743ZM25.4368 9.62362C25.0289 9.62362 24.6301 9.50266 24.2909 9.27603C23.9518 9.0494 23.6874 8.72728 23.5313 8.35041C23.3752 7.97354 23.3344 7.55884 23.4139 7.15875C23.4935 6.75867 23.69 6.39116 23.9784 6.10272C24.2669 5.81427 24.6344 5.61784 25.0344 5.53826C25.4345 5.45867 25.8492 5.49952 26.2261 5.65562C26.603 5.81173 26.9251 6.07609 27.1517 6.41526C27.3783 6.75444 27.4993 7.1532 27.4993 7.56112C27.4996 7.83215 27.4464 8.10057 27.3429 8.35104C27.2394 8.60152 27.0875 8.82913 26.896 9.02087C26.7044 9.21261 26.4769 9.36471 26.2266 9.46849C25.9762 9.57227 25.7078 9.62569 25.4368 9.62569V9.62362Z" fill="#F96277"/>
</g>
<defs>
<clipPath id="clip0_250_1215">
<rect width="33" height="33" fill="white"/>
</clipPath>
</defs>
</svg>
