<svg width="66" height="48" viewBox="0 0 66 48" fill="none" xmlns="http://www.w3.org/2000/svg">
<g clip-path="url(#clip0_264_836)">
<path d="M12.4375 31.0874C10.9937 34.7186 8.71879 38.3062 5.67815 41.7625C4.71565 42.8562 4.5844 44.4312 5.37187 45.6562C5.98444 46.6187 6.9906 47.1436 8.08435 47.1436C8.39062 47.1436 8.69692 47.1219 9.00319 47.0124C15.4343 45.1312 30.4626 38.4593 30.8782 17.0655C31.0312 8.81872 24.9938 1.73124 17.1406 0.921864C12.7875 0.484342 8.45631 1.90613 5.24062 4.79365C2.02507 7.70307 0.1875 11.8594 0.1875 16.1906C0.1875 23.4093 5.30631 29.7312 12.4375 31.0874Z" fill="url(#paint0_linear_264_836)"/>
<path d="M52.0534 0.921864C47.7221 0.484342 43.3909 1.90613 40.1753 4.79365C36.9596 7.70307 35.1221 11.8594 35.1221 16.1906C35.1221 23.4093 40.2409 29.7312 47.3722 31.0874C45.9283 34.7186 43.6534 38.3062 40.6127 41.7624C39.6502 42.8562 39.519 44.4311 40.3066 45.6561C40.919 46.6186 41.9253 47.1436 43.0191 47.1436C43.3252 47.1436 43.6315 47.1218 43.9378 47.0124C50.369 45.1311 65.3971 38.4593 65.8128 17.0655V16.7593C65.8128 8.64367 59.8409 1.73124 52.0534 0.921864Z" fill="url(#paint1_linear_264_836)"/>
</g>
<defs>
<linearGradient id="paint0_linear_264_836" x1="0.1875" y1="0.843994" x2="42.8328" y2="29.115" gradientUnits="userSpaceOnUse">
<stop stop-color="#5E5CFA"/>
<stop offset="1" stop-color="#414DD4"/>
</linearGradient>
<linearGradient id="paint1_linear_264_836" x1="35.1221" y1="0.843994" x2="77.7658" y2="29.1113" gradientUnits="userSpaceOnUse">
<stop stop-color="#5E5CFA"/>
<stop offset="1" stop-color="#414DD4"/>
</linearGradient>
<clipPath id="clip0_264_836">
<rect width="66" height="48" fill="white"/>
</clipPath>
</defs>
</svg>
